<svg xmlns="http://www.w3.org/2000/svg" viewBox="0 0 183.9 40.25"><defs><style>.cls-1{fill:#fff;}.cls-2{fill:#0099d9;}</style></defs><title>アセット 11024</title><g id="レイヤー_2" data-name="レイヤー 2"><g id="レイヤー_1-2" data-name="レイヤー 1"><path class="cls-1" d="M62.63,28.74A12.59,12.59,0,0,1,54,31.91c-5.71,0-9.75-2.86-9.75-9.43,0-8,5.12-13.28,11.69-13.28,5.21,0,8.16,2.63,8.16,6.48,0,4.8-4.4,7-9.75,7a17.52,17.52,0,0,1-4.9-.68v.23c0,4,2,5.48,5.31,5.48a8.16,8.16,0,0,0,5.57-2.31ZM49.89,18.54a17,17,0,0,0,4.58.63c2.76,0,4.58-1,4.58-3.22,0-1.54-1.27-2.63-3.4-2.63C52.7,13.33,50.71,15.32,49.89,18.54Z"/><path class="cls-1" d="M87.8,16.09A14.15,14.15,0,0,1,87.62,18L85.26,31.23H80.1l2.13-12a9.66,9.66,0,0,0,.14-1.59c0-2.63-1.5-3.85-4.17-3.85a11.14,11.14,0,0,0-4.3.68L71,31.23H65.86l3.49-20a20.91,20.91,0,0,1,9.47-2.13C85.22,9.11,87.8,12.1,87.8,16.09Z"/><path class="cls-1" d="M90.19,31.23,94,9.79h5.12L95.36,31.23ZM94.32,3.31a3.29,3.29,0,1,1,6.57,0,3.29,3.29,0,0,1-6.57,0Z"/><path class="cls-1" d="M114.17,30c-4.14,1.59-5.92,1.85-7.69,2.79-1.38.73-1.33,1.72-1,2.31.45.79,1.33.93,2.3.93A5.8,5.8,0,0,0,114,30.91l.18-1a11.3,11.3,0,0,1-4.26.82c-5.17,0-9-3.13-9-8.7,0-8.2,6.26-13,13.23-13a15.89,15.89,0,0,1,8.48,2.13l-3.35,19.08c-1.13,6.39-5.67,9.93-11.6,9.93-2.5,0-4.95-.5-6-2.1a4.09,4.09,0,0,1,1.12-5.66c1.75-1.29,4.44-1.91,7.49-2.42m4.69-4.46,2-11.33a7.94,7.94,0,0,0-3.49-.73c-3.85,0-7.21,2.86-7.21,7.84,0,3.31,1.86,5.12,5.08,5.12A7.27,7.27,0,0,0,114.9,25.61Z"/><path class="cls-1" d="M159.13,16a9.68,9.68,0,0,1-.18,1.95l-2.36,13.33h-5.16l2.13-12a9.12,9.12,0,0,0,.14-1.54c0-2.63-1.27-3.85-3.81-3.85a7.93,7.93,0,0,0-4.4,1.23,6.88,6.88,0,0,1,0,1,14.32,14.32,0,0,1-.14,1.9L143,31.23h-5.17l2.13-12a9.14,9.14,0,0,0,.09-1.54c0-2.63-1.27-3.85-3.9-3.85a10.34,10.34,0,0,0-3.9.59l-2.95,16.82h-5.17l3.54-20a21.2,21.2,0,0,1,9.7-2.13c2.95,0,5,.77,6.3,2a14.77,14.77,0,0,1,7.39-2C156.82,9.11,159.13,12,159.13,16Z"/><path class="cls-1" d="M183.9,11.24l-2.67,15.11c-.52,2.91,0,4.45.92,5.58,0,0-2.83.61-4.41-.41a3.21,3.21,0,0,1-1.36-2.65,9.27,9.27,0,0,1-6.89,3c-4.44,0-7.48-3-7.48-8.39,0-8.43,5.85-14.37,13.6-14.37A14.81,14.81,0,0,1,183.9,11.24Zm-7.21,11.7,1.54-8.66a10.42,10.42,0,0,0-3.4-.55c-4.35,0-7.52,3.67-7.52,8.93,0,3.08,1.4,4.8,3.72,4.8S175.42,26,176.69,22.94Z"/><path class="cls-2" d="M21,22.3a3.57,3.57,0,1,1-1.31-4.88A3.57,3.57,0,0,1,21,22.3ZM33.53,11.91h0C31.13,7.7,29.68,5,29.63.14c-4.25,2.39-7.3,2.48-12.15,2.51h0a17.87,17.87,0,1,0,16,9.26Z"/></g></g></svg>