<?xml version="1.0" encoding="utf-8"?>
<!-- Generator: Adobe Illustrator 22.0.1, SVG Export Plug-In . SVG Version: 6.00 Build 0)  -->
<svg version="1.1" id="レイヤー_1" xmlns="http://www.w3.org/2000/svg" xmlns:xlink="http://www.w3.org/1999/xlink" x="0px"
	 y="0px" viewBox="0 0 284 52" style="enable-background:new 0 0 284 52;" xml:space="preserve">
<style type="text/css">
	.st0{fill:#EE49A3;}
</style>
<g>
	<path class="st0" d="M12.3,35.3v9.4c0,1.6-0.6,3-1.8,4.2c-1.2,1.2-2.6,1.8-4.2,1.8c-1.6,0-3-0.6-4.1-1.8c-1.1-1.2-1.6-2.6-1.6-4.2
		V6.2c0-1.6,0.5-3,1.6-4c1.1-1.1,2.4-1.6,4.1-1.6c1.6,0,3,0.5,4.2,1.6c1.2,1.1,1.8,2.4,1.8,4v17.5l12.1-13.3
		c1.1-1.2,2.4-1.9,3.9-2.1c1.6-0.2,3,0.4,4.2,1.6c1.2,1.1,1.9,2.4,1.9,3.9c0,1.6-0.5,3-1.5,4.2L22.5,29.3L33,40.6
		c0.5,0.6,0.9,1.3,1.1,2.1c0.3,0.8,0.4,1.6,0.3,2.3c0,0.8-0.2,1.5-0.5,2.2c-0.3,0.7-0.8,1.3-1.4,1.8c-1.2,1.1-2.6,1.6-4.2,1.6
		c-1.6,0-2.9-0.7-3.9-1.9L12.3,35.3z"/>
	<path class="st0" d="M85.7,45c0,1.6-0.5,3-1.6,4.2c-1.1,1.2-2.4,1.8-4,1.8c-1.3,0-2.3-0.3-3.1-0.8c-0.8-0.6-1.6-1.2-2.2-2
		c-1.4,0.8-3,1.5-4.7,2c-1.7,0.6-3.5,0.8-5.3,0.8c-3,0-5.7-0.6-8.3-1.7c-2.6-1.1-4.8-2.6-6.7-4.6c-1.9-1.9-3.4-4.2-4.4-6.7
		c-1.1-2.5-1.6-5.2-1.6-8c0-2.9,0.5-5.6,1.6-8.2c1.1-2.6,2.6-4.8,4.4-6.7c1.9-1.9,4.1-3.4,6.7-4.5C59,9.5,61.8,9,64.7,9
		c2.9,0,5.5,0.5,8,1.6c2.5,1,4.7,2.5,6.5,4.3c1.9,1.8,3.4,4,4.5,6.4c1.1,2.5,1.8,5.1,1.9,8V45z M64.7,39.3c2.7,0,4.9-0.9,6.6-2.6
		c1.7-1.8,2.6-4,2.6-6.7c0-1.3-0.2-2.6-0.7-3.8c-0.4-1.2-1.1-2.2-1.9-3.1c-0.8-0.9-1.8-1.6-2.9-2.1c-1.1-0.5-2.3-0.8-3.7-0.8
		c-1.3,0-2.6,0.3-3.7,0.8c-1.1,0.5-2.1,1.2-3,2.1c-0.8,0.9-1.5,1.9-2,3.1c-0.5,1.2-0.7,2.4-0.7,3.8c0,1.3,0.2,2.6,0.7,3.7
		c0.5,1.1,1.1,2.1,2,2.9c0.8,0.8,1.8,1.5,3,2C62.2,39.1,63.4,39.3,64.7,39.3z"/>
	<path class="st0" d="M110.7,35.3v9.4c0,1.6-0.6,3-1.8,4.2c-1.2,1.2-2.6,1.8-4.2,1.8c-1.6,0-3-0.6-4.1-1.8c-1.1-1.2-1.6-2.6-1.6-4.2
		V6.2c0-1.6,0.5-3,1.6-4c1.1-1.1,2.4-1.6,4.1-1.6c1.6,0,3,0.5,4.2,1.6c1.2,1.1,1.8,2.4,1.8,4v17.5l12.1-13.3
		c1.1-1.2,2.4-1.9,3.9-2.1c1.6-0.2,3,0.4,4.2,1.6c1.2,1.1,1.9,2.4,1.9,3.9c0,1.6-0.5,3-1.5,4.2l-10.5,11.3l10.5,11.3
		c0.5,0.6,0.9,1.3,1.1,2.1c0.3,0.8,0.4,1.6,0.3,2.3c0,0.8-0.2,1.5-0.5,2.2c-0.3,0.7-0.8,1.3-1.4,1.8c-1.2,1.1-2.6,1.6-4.2,1.6
		c-1.6,0-2.9-0.7-3.9-1.9L110.7,35.3z"/>
	<path class="st0" d="M184.1,45c0,1.6-0.5,3-1.6,4.2c-1.1,1.2-2.4,1.8-4,1.8c-1.3,0-2.3-0.3-3.1-0.8c-0.8-0.6-1.6-1.2-2.2-2
		c-1.4,0.8-3,1.5-4.7,2c-1.7,0.6-3.5,0.8-5.3,0.8c-3,0-5.7-0.6-8.3-1.7c-2.6-1.1-4.8-2.6-6.7-4.6c-1.9-1.9-3.4-4.2-4.4-6.7
		c-1.1-2.5-1.6-5.2-1.6-8c0-2.9,0.5-5.6,1.6-8.2c1.1-2.6,2.6-4.8,4.4-6.7c1.9-1.9,4.1-3.4,6.7-4.5c2.6-1.1,5.3-1.6,8.3-1.6
		c2.9,0,5.5,0.5,8,1.6c2.5,1,4.7,2.5,6.5,4.3c1.9,1.8,3.4,4,4.5,6.4c1.1,2.5,1.8,5.1,1.9,8V45z M163.1,39.3c2.7,0,4.9-0.9,6.6-2.6
		c1.7-1.8,2.6-4,2.6-6.7c0-1.3-0.2-2.6-0.7-3.8c-0.4-1.2-1.1-2.2-1.9-3.1c-0.8-0.9-1.8-1.6-2.9-2.1c-1.1-0.5-2.3-0.8-3.7-0.8
		c-1.3,0-2.6,0.3-3.7,0.8c-1.1,0.5-2.1,1.2-3,2.1c-0.8,0.9-1.5,1.9-2,3.1c-0.5,1.2-0.7,2.4-0.7,3.8c0,1.3,0.2,2.6,0.7,3.7
		c0.5,1.1,1.1,2.1,2,2.9c0.8,0.8,1.8,1.5,3,2C160.5,39.1,161.8,39.3,163.1,39.3z"/>
	<path class="st0" d="M209.1,35.3v9.4c0,1.6-0.6,3-1.8,4.2c-1.2,1.2-2.6,1.8-4.2,1.8c-1.6,0-3-0.6-4.1-1.8c-1.1-1.2-1.6-2.6-1.6-4.2
		V6.2c0-1.6,0.5-3,1.6-4c1.1-1.1,2.4-1.6,4.1-1.6c1.6,0,3,0.5,4.2,1.6c1.2,1.1,1.8,2.4,1.8,4v17.5l12.1-13.3
		c1.1-1.2,2.4-1.9,3.9-2.1c1.6-0.2,3,0.4,4.2,1.6c1.2,1.1,1.9,2.4,1.9,3.9c0,1.6-0.5,3-1.5,4.2l-10.5,11.3l10.5,11.3
		c0.5,0.6,0.9,1.3,1.1,2.1c0.3,0.8,0.4,1.6,0.3,2.3c0,0.8-0.2,1.5-0.5,2.2c-0.3,0.7-0.8,1.3-1.4,1.8c-1.2,1.1-2.6,1.6-4.2,1.6
		c-1.6,0-2.9-0.7-3.9-1.9L209.1,35.3z"/>
	<path class="st0" d="M282.5,45c0,1.6-0.5,3-1.6,4.2c-1.1,1.2-2.4,1.8-4,1.8c-1.3,0-2.3-0.3-3.1-0.8c-0.8-0.6-1.6-1.2-2.2-2
		c-1.4,0.8-3,1.5-4.7,2c-1.7,0.6-3.5,0.8-5.3,0.8c-3,0-5.7-0.6-8.3-1.7c-2.6-1.1-4.8-2.6-6.7-4.6c-1.9-1.9-3.4-4.2-4.4-6.7
		c-1.1-2.5-1.6-5.2-1.6-8c0-2.9,0.5-5.6,1.6-8.2c1.1-2.6,2.6-4.8,4.4-6.7c1.9-1.9,4.1-3.4,6.7-4.5c2.6-1.1,5.3-1.6,8.3-1.6
		c2.9,0,5.5,0.5,8,1.6c2.5,1,4.7,2.5,6.5,4.3c1.9,1.8,3.4,4,4.5,6.4c1.1,2.5,1.8,5.1,1.9,8V45z M261.5,39.3c2.7,0,4.9-0.9,6.6-2.6
		c1.7-1.8,2.6-4,2.6-6.7c0-1.3-0.2-2.6-0.7-3.8c-0.4-1.2-1.1-2.2-1.9-3.1c-0.8-0.9-1.8-1.6-2.9-2.1c-1.1-0.5-2.3-0.8-3.7-0.8
		c-1.3,0-2.6,0.3-3.7,0.8c-1.1,0.5-2.1,1.2-3,2.1c-0.8,0.9-1.5,1.9-2,3.1c-0.5,1.2-0.7,2.4-0.7,3.8c0,1.3,0.2,2.6,0.7,3.7
		c0.5,1.1,1.1,2.1,2,2.9c0.8,0.8,1.8,1.5,3,2C258.9,39.1,260.2,39.3,261.5,39.3z"/>
</g>
</svg>
